<svg height="512" viewBox="0 0 59 58" width="512" xmlns="http://www.w3.org/2000/svg"><g id="Page-1" fill="none" fill-rule="evenodd"><g id="088---Piggy-Bank" fill-rule="nonzero" transform="translate(0 -1)"><path id="Shape" d="m2.111 40.808c-.38340642-.0003107-.73288075-.2198087-.89964382-.5650487-.16676306-.34524-.12145177-.7554333.11664382-1.0559513.7483937-.9276734 1.38198329-1.9423569 1.887-3.022-.8825076-.092634-1.71089287-.4699705-2.36-1.075-.64364282-.6628367-.94771433-1.5842655-.825-2.5.13944788-.8041911.59269326-1.5200311 1.26-1.99 1.2238204-.8783986 2.89457097-.7842835 4.012.226.75319901.8092717 1.08177031 1.9257473.887 3.014-.023.159-.053.314-.089.466.647-.022 1.317-.067 2.009-.112.944-.062 1.918-.127 2.885-.133h.006c.5522847-.001933 1.001567.4442153 1.0035.9965s-.4442153 1.001567-.9965 1.0035c-.907 0-1.853.068-2.767.128-.963.064-1.952.129-2.91.129l-.093.215c-.5961079 1.399969-1.38252294 2.7109973-2.337 3.896-.19080661.2408398-.48174046.3805913-.789.379zm1.081-8.808c-.26162219-.0019202-.51751149.076627-.733.225-.23090914.1532175-.39248633.3909155-.45.662-.03087589.3046019.07711586.6069053.294.823.49949726.3675603 1.10593439.5608051 1.726.55.08206971-.227095.14234141-.461485.18-.7.09810807-.4580652-.01621135-.9359278-.311-1.3-.19251596-.1752645-.44579407-.2685398-.706-.26z" fill="#df4d60"/><path id="Shape" d="m57.22 28.8-3.56-.39c-1.0953934-2.3429583-2.6771335-4.4258101-4.64-6.11l-.128-.057c.3145977-.2624817.5667142-.5918045.738-.964.294259-.6677853.4880265-1.375458.575-2.1.1426485-1.3908907.118477-2.7938487-.072-4.179.0296472-1.1181891-.3533743-2.2081628-1.076-3.062-1.357-1.191-3.59.445-4.664 1.338-1.269305 1.0366309-2.2587456 2.3746791-2.878 3.892-.159296.4104913-.281126.8345532-.364 1.267-.0185445.1174906-.0292349.236087-.032.355l-.019-.01c-1.2039427-.4333373-2.432821-.7939864-3.68-1.08l-17.44 1.26c-5.16 2.37-9.5 6.92-10.67 12.56-1.46 7.04 2.59 13.53 8.4 17.23.19.12.38.24.58.36l.64 8.96c.0419656.5223016.4760306.9259821 1 .93h6.14c.5239694-.0040179.9580344-.4076984 1-.93l.39-5.57c2.9899574.6666536 6.0900426.6666536 9.08 0l.39 5.57c.0419656.5223016.4760306.9259821 1 .93h6.14c.5239694-.0040179.9580344-.4076984 1-.93l.64-8.96c1.8661033-1.1037367 3.5550932-2.4825727 5.01-4.09h.01c.4669968-.5121014.9011939-1.0531777 1.3-1.62.6399445-.8771924 1.1862578-1.8189963 1.63-2.81l3.56-.39c1.0140558-.1122266 1.78109-.9697536 1.78-1.99v-7.42c.00109-1.0202464-.7659442-1.8777734-1.78-1.99z" fill="#fb7b76"/><path id="Shape" d="m45 33c-2.209139 0-4-1.790861-4-4 0-.5522847.4477153-1 1-1s1 .4477153 1 1c0 1.1045695.8954305 2 2 2s2-.8954305 2-2c0-.5522847.4477153-1 1-1s1 .4477153 1 1c0 2.209139-1.790861 4-4 4z" fill="#3f5c6c"/><path id="Shape" d="m24.29 22.36c-4.3741506-1.5671026-7.2919105-5.7136035-7.29-10.36-.0038873-1.7384477.4075281-3.45267848 1.2-5 2.2431975-4.40356116 7.146552-6.77197926 11.9903181-5.79156287 4.843766.98041639 8.4401234 5.06924314 8.7942791 9.99852907.3541557 4.9292859-2.6207387 9.4902391-7.2745972 11.1530338z" fill="#f0c419"/><path id="Shape" d="m49 40v-.01c-.0017863-.3572656-.1940359-.6864396-.5043301-.8635254-.3102943-.1770858-.6914921-.1751798-1 .005s-.4974562.5112598-.4956699.8685254c.1905091 2.2423204 1.6301968 4.1851247 3.72 5.02h.01c.4669968-.5121014.9011939-1.0531777 1.3-1.62-2.88-1.07-3.03-3.22-3.03-3.4z" fill="#df4d60"/><path id="Shape" d="m36 25c-.2054883-.0002505-.4059106-.0637991-.574-.182-2.2504046-1.3040265-4.8277085-1.9349904-7.426-1.818-2.5979555-.1167974-5.1748854.51416-7.425 1.818-.4516915.3069336-1.0660903.1947333-1.3801415-.2520387s-.2115989-1.0628713.2301415-1.3839613c1.942-1.367 5.148-2.182 8.575-2.182s6.633.815 8.575 2.182c.356676.2508148.5097193.7038222.3782296 1.1195581-.1314896.4157358-.5171954.6983468-.9532296.6984419z" fill="#df4d60"/><path id="Shape" d="m29 11.091v-4.937c1.1128409.25246244 1.9267959 1.20723172 2 2.346 0 .55228473.4477153.99999994 1 .99999994s1-.44771521 1-.99999994c-.0965423-2.24159872-1.7783513-4.09537268-4-4.409v-.091c0-.55228475-.4477153-1-1-1s-1 .44771525-1 1v.091c-2.2216487.31362732-3.9034577 2.16740128-4 4.409.0965423 2.2415987 1.7783513 4.0953727 4 4.409v4.937c-1.1128409-.2524624-1.9267959-1.2072317-2-2.346 0-.5522847-.4477153-1-1-1s-1 .4477153-1 1c.0965423 2.2415987 1.7783513 4.0953727 4 4.409v.091c0 .5522847.4477153 1 1 1s1-.4477153 1-1v-.091c2.2216487-.3136273 3.9034577-2.1674013 4-4.409-.0965423-2.2415987-1.7783513-4.0953727-4-4.409zm-4-2.591c.0732041-1.13876828.8871591-2.09353756 2-2.346v4.692c-1.1128409-.2524624-1.9267959-1.20723172-2-2.346zm4 9.346v-4.692c1.1128409.2524624 1.9267959 1.2072317 2 2.346-.0732041 1.1387683-.8871591 2.0935376-2 2.346z" fill="#f29c1f"/></g></g></svg>