<svg height="512" viewBox="0 0 512 512" width="512" xmlns="http://www.w3.org/2000/svg"><g id="Flat"><path d="m464 312-48 72-96 40h-96l-56 56h-96l109.25-109.25a64.00452 64.00452 0 0 1 45.26-18.75h37.49a81.9343 81.9343 0 0 1 57.93994-24h22.06006l-40 40h24l56-16 2.01-2.52a99.92867 99.92867 0 0 1 77.99-37.48z" fill="#f4ceaf"/><path d="m32 496 112-112 88 88-24 24z" fill="#8acce7"/><path d="m152 96h256v208h-256z" fill="#eebe33"/><path d="m152 96h192v208h-192z" fill="#eedc9a"/><path d="m224 96h48v40h-48z" fill="#eebe33"/><path d="m256 232h64v48h-64z" fill="#eebe33"/><g fill="#e44042"><path d="m272 16h16v32h-16z"/><path d="m115.999 51.029h16.001v33.941h-16.001z" transform="matrix(.707 -.707 .707 .707 -11.765 107.598)"/><path d="m96 184h32v16h-32z"/><path d="m427.029 59.999h33.941v16.001h-33.941z" transform="matrix(.707 -.707 .707 .707 81.961 333.872)"/><path d="m432 184h32v16h-32z"/></g><path d="m326.62 368-27.31 27.31-11.31-11.31 16-16z" fill="#f2c194"/></g></svg>